# xmcd CD database file
#
# Track frame offsets:
#	150
#	13365
#	28235
#	51380
#	82747
#	93357
#	108395
#	123500
#	141977
#	157592
#	170900
#	184637
#
# Disc length: 2731 seconds
#
# Revision: 0
# Processed by: cddbd v1.5PL3 Copyright (c) Steve Scherf et al.
# Submitted via: CDex 1.51
#
DISCID=9d0aa90c
DTITLE=太田裕美 - まごころ
DYEAR=1974
DGENRE=JPop
TTITLE0=雨だれ
TTITLE1=幸福ゆき
TTITLE2=あなたに夢中
TTITLE3=雨の予感
TTITLE4=ひとりごと
TTITLE5=夏の扉
TTITLE6=やさしさを下さい
TTITLE7=心さわぎ
TTITLE8=グレー＆ブルー
TTITLE9=ぬくもり
TTITLE10=白い季節
TTITLE11=雨だれ
EXTD=YEAR: 1974
EXTT0=
EXTT1=
EXTT2=
EXTT3=
EXTT4=
EXTT5=
EXTT6=
EXTT7=
EXTT8=
EXTT9=
EXTT10=
EXTT11=
PLAYORDER=
